<?xml version="1.0" encoding="UTF-8" standalone="no"?>
<svg
   xmlns:dc="http://purl.org/dc/elements/1.1/"
   xmlns:cc="http://creativecommons.org/ns#"
   xmlns:rdf="http://www.w3.org/1999/02/22-rdf-syntax-ns#"
   xmlns:svg="http://www.w3.org/2000/svg"
   xmlns="http://www.w3.org/2000/svg"
   xmlns:sodipodi="http://sodipodi.sourceforge.net/DTD/sodipodi-0.dtd"
   xmlns:inkscape="http://www.inkscape.org/namespaces/inkscape"
   inkscape:version="1.0 (4035a4f, 2020-05-01)"
   sodipodi:docname="svg-logo-rino-pelle.svg"
   id="svg30"
   version="1.1"
   viewBox="0 0 239.6 17.8"
   fill="#1F1F1F">
  <metadata
     id="metadata36">
    <rdf:RDF>
      <cc:Work
         rdf:about="">
        <dc:format>image/svg+xml</dc:format>
        <dc:type
           rdf:resource="http://purl.org/dc/dcmitype/StillImage" />
      </cc:Work>
    </rdf:RDF>
  </metadata>
  <defs
     id="defs34" />
  <sodipodi:namedview
     inkscape:current-layer="svg30"
     inkscape:window-maximized="0"
     inkscape:window-y="23"
     inkscape:window-x="0"
     inkscape:cy="8.9"
     inkscape:cx="135.70149"
     inkscape:zoom="4.5784641"
     inkscape:snap-midpoints="true"
     inkscape:bbox-nodes="true"
     inkscape:snap-bbox="true"
     inkscape:object-nodes="false"
     showgrid="false"
     id="namedview32"
     inkscape:window-height="789"
     inkscape:window-width="1410"
     inkscape:pageshadow="2"
     inkscape:pageopacity="0"
     guidetolerance="10"
     gridtolerance="10"
     objecttolerance="10"
     borderopacity="1"
     bordercolor="#666666"
     pagecolor="#ffffff" />
  <text
     transform="scale(1.1081854,0.90237609)"
     id="text44"
     y="10.7394"
     x="67.111107"
     style="font-style:normal;font-variant:normal;font-weight:normal;font-stretch:normal;font-size:10.6667px;line-height:1.25;font-family:Zapfino;-inkscape-font-specification:'Zapfino, Normal';font-variant-ligatures:normal;font-variant-caps:normal;font-variant-numeric:normal;font-variant-east-asian:normal;fill:#0a0100;fill-opacity:1;stroke:#000000;stroke-width:0.85;stroke-miterlimit:4;stroke-dasharray:none;stroke-opacity:1"
     xml:space="preserve"><tspan
       style="font-style:normal;font-variant:normal;font-weight:normal;font-stretch:normal;font-size:10.6667px;font-family:Zapfino;-inkscape-font-specification:'Zapfino, Normal';font-variant-ligatures:normal;font-variant-caps:normal;font-variant-numeric:normal;font-variant-east-asian:normal;fill:#0a0100;fill-opacity:1;stroke:#000000;stroke-width:0.85;stroke-miterlimit:4;stroke-dasharray:none;stroke-opacity:1"
       y="10.7394"
       x="69.777779"
       id="tspan42"
       sodipodi:role="line"><tspan
   dy="0 0 0 0 0 0 0 0 0 0 0 0 0 0 0 0 0 0 0 0 0 0 0 0 0 0 0 0 0 0 0 0 0 0 -0.11"
   dx="0 0 0 0 0 0 0 0 0 0 0 0 0 0 0 0 0 0 0 0 0 0 0 0 0 0 0 0 0 0 0 0 0 0 -0.079999998"
   id="tspan66"
   style="font-size:13.3333px;fill:#0a0100;fill-opacity:1;stroke:#000000;stroke-width:0.85;stroke-miterlimit:4;stroke-dasharray:none;stroke-opacity:1"><tspan
   dy="0 0 0 0 0 0 0 0 0 0 0 0 0 0 0 0 0 0 0 0 0.11"
   dx="0 0 0 0 0 0 0 0 0 0 0 0 0 0 0 0 0 0 0 0 0.079999998"
   id="tspan70"
   style="font-size:8px;text-align:center;letter-spacing:0.1px;word-spacing:0.1px;text-anchor:middle;fill:#0a0100;fill-opacity:1;stroke:#000000;stroke-width:0.85;stroke-miterlimit:4;stroke-dasharray:none;stroke-opacity:1">                    GOBI  CASHMERE</tspan><tspan
   id="tspan1077"
   style="font-size:8px;text-align:center;text-anchor:middle"> </tspan> </tspan> </tspan></text>
  <text
     transform="scale(1.2918224,0.77410022)"
     id="text48"
     y="12.945895"
     x="59.02203"
     style="font-style:normal;font-variant:normal;font-weight:normal;font-stretch:normal;font-size:16.491px;line-height:1.25;font-family:Zapfino;-inkscape-font-specification:'Zapfino, Normal';font-variant-ligatures:normal;font-variant-caps:normal;font-variant-numeric:normal;font-variant-east-asian:normal;fill:#000000;fill-opacity:1;stroke:none;stroke-width:0.412275"
     xml:space="preserve"><tspan
       style="stroke-width:0.412275"
       y="12.945895"
       x="59.02203"
       id="tspan46"
       sodipodi:role="line" /><tspan
       id="tspan50"
       style="stroke-width:0.412275"
       y="33.559643"
       x="59.02203"
       sodipodi:role="line" /></text>
  <path
     d="m 52.660812,32.659867 c -0.404589,-0.619872 -0.892318,-1.22867 -1.519832,-1.639453 -0.60199,-0.394073 -1.035632,-0.513999 -1.708392,-0.768378 -1.174091,-0.327188 -2.430797,-0.73308 -3.668627,-0.518561 -0.920002,0.15944 -1.18035,0.384612 -2.010632,0.82233 -1.171778,0.766311 -2.408578,1.441386 -3.515333,2.298933 -0.343906,0.266469 -0.547169,0.677843 -0.791283,1.037961 -0.720213,1.062461 -1.291935,2.27301 -1.709741,3.485768 -0.129206,0.375043 -0.219095,0.762498 -0.328642,1.143747 -0.422373,1.925499 -0.559485,3.980877 -0.01761,5.903106 0.10584,0.375451 0.267748,0.732784 0.401623,1.099176 0.199203,0.343935 0.361606,0.711998 0.597609,1.031804 1.31062,1.776013 3.50851,2.607997 5.581182,3.096426 0.695882,0.163985 1.407669,0.251075 2.111504,0.376612 1.881284,0.155663 3.852796,0.368376 5.712469,-0.120174 0.527743,-0.138642 1.046307,-0.332016 1.526444,-0.591252 3.617474,-1.953142 2.966327,-1.481663 4.904054,-3.302802 1.569574,-1.766283 2.291317,-3.564234 2.900442,-5.792338 0.415766,-1.336759 0.34854,-2.782996 0.811374,-4.103003 1.28395,-0.749981 -2.093802,1.21488 -2.623965,1.991647 -0.331686,0.485969 0.139384,1.169775 0.161155,1.757744 0.03427,0.925414 0.02845,1.852341 0.0068,2.778135 -0.07668,3.279054 -0.207394,4.180866 -0.491139,7.537369 -0.404823,3.658452 -0.780917,7.33697 -1.545511,10.943307 -0.275998,1.301791 -0.784455,3.435787 -1.46629,4.673042 -0.283744,0.514882 -0.721899,0.928073 -1.082848,1.392109 -0.418139,0.258257 -1.328747,1.260582 -1.254418,0.774771 0.09104,-0.595042 1.299661,-0.626847 1.323812,-1.228328 0.01718,-0.427923 -0.862493,-0.07664 -1.265609,-0.22125 -1.373906,-0.492849 -2.312614,-1.619445 -3.245498,-2.668892 -0.912858,-1.266214 -0.508384,-0.630987 -1.227737,-1.896491 0,0 -2.661995,1.539517 -2.661995,1.539517 v 0 c 0.77635,1.281689 0.343756,0.63936 1.311195,1.917886 0.973239,1.075992 1.958187,2.25975 3.339519,2.836533 0.420729,0.175677 0.889502,0.433557 1.33043,0.317548 2.739955,-0.720887 3.289424,-1.252096 5.054987,-2.540959 0.327081,-0.478275 0.728372,-0.913496 0.981243,-1.434826 0.589043,-1.214397 1.032827,-3.390752 1.25929,-4.632132 0.657454,-3.60391 0.963933,-7.262821 1.405846,-10.895513 0.350079,-3.505066 0.715593,-7.011835 0.83633,-10.534642 0.02144,-0.625509 0.587504,-1.638592 0.0091,-1.877605 -2.45861,-1.015902 -2.681864,-0.197324 -3.041434,0.84089 -0.309821,1.343 -0.352775,2.738389 -0.7314,4.069185 -0.592343,2.118427 -1.326442,3.963134 -2.876865,5.594881 -0.350957,0.31308 -1.307602,0.54389 -1.052871,0.93924 0.253496,0.393432 1.72443,-0.693822 1.263571,-0.612226 -0.536426,0.09498 -0.976237,0.496646 -1.497873,0.65371 -1.846064,0.555849 -3.831149,0.389122 -5.715732,0.245197 -0.688674,-0.122268 -1.385516,-0.205146 -2.066022,-0.366805 -1.97811,-0.469914 -4.090564,-1.285843 -5.336219,-2.984995 -0.224324,-0.305991 -0.378743,-0.657542 -0.568115,-0.986314 -0.12628,-0.353296 -0.278408,-0.698394 -0.378842,-1.059888 -0.523729,-1.885068 -0.363537,-3.888117 0.07829,-5.767722 0.357139,-1.185207 0.753969,-2.320139 1.36364,-3.405801 0.213878,-0.380858 0.444257,-0.753889 0.702342,-1.106293 0.255053,-0.348265 1.25178,-0.883808 0.833634,-0.991018 -0.601915,-0.154327 -1.131975,0.51294 -1.697962,0.769409 0.738056,-0.437695 1.058327,-0.71039 1.892335,-0.902195 1.203537,-0.276788 2.448409,0.09911 3.601447,0.403903 0.61132,0.223617 1.066204,0.346723 1.610482,0.704653 0.58094,0.38204 1.039451,0.952352 1.362451,1.559286 0,0 2.823868,-1.585969 2.823868,-1.585969 z"
     id="path156"
     style="fill:#241c1c;fill-opacity:0" />
  <path
     d="m 43.702636,35.732555 c -1.085479,-0.07063 -2.155804,0.317195 -3.091685,0.845066 -3.676548,2.073704 -2.745702,1.367572 -4.712697,3.088003 -1.031563,1.140018 -1.991232,2.398071 -2.599104,3.823058 -0.266284,0.624228 -0.30316,0.889267 -0.459159,1.534938 -0.109117,0.898846 -0.07739,1.812955 0.245656,2.669047 0.218946,0.580221 0.426165,0.878866 0.741418,1.416597 0.550624,0.905589 1.204641,1.736085 2.062264,2.369641 0.601065,0.444028 0.877619,0.561569 1.536748,0.915378 1.337422,0.594957 2.793408,1.033923 4.274028,0.902424 0.267259,-0.02374 0.530026,-0.08388 0.795038,-0.125818 1.65054,-0.604819 3.8435,-1.29524 4.531359,-3.02659 0.602693,-1.516986 0.451806,-3.272552 0.437833,-4.859938 -0.108134,-2.290047 -0.04471,-1.186234 -0.185656,-3.311701 0,0 -2.652803,1.378197 -2.652803,1.378197 v 0 c 0.192976,2.088632 0.113267,1.001193 0.228848,3.263052 -0.01284,1.33943 0.05229,2.233552 -0.240997,3.543582 -0.09435,0.421431 -0.232628,0.83836 -0.432019,1.221438 -0.140988,0.270871 -0.869715,0.792998 -0.574958,0.713205 0.755564,-0.204536 1.389017,-0.723356 2.06573,-1.116767 0.216187,-0.125682 -0.454714,0.208246 -0.68207,0.312369 -0.257795,0.05415 -0.512465,0.126235 -0.773383,0.162463 -1.443804,0.200473 -2.87199,-0.196736 -4.190357,-0.758196 -0.632124,-0.330611 -0.91694,-0.448954 -1.491548,-0.868836 -0.827672,-0.604802 -1.462422,-1.413203 -2.003544,-2.275009 -0.77342,-1.367566 -1.090008,-2.291293 -0.864923,-3.87881 0.166148,-0.644832 0.189499,-0.837039 0.461548,-1.461794 0.601759,-1.381928 1.517704,-2.608532 2.57206,-3.675695 0.846294,-0.69549 2.247984,-1.731294 -0.480196,-0.05048 -0.324588,0.199977 0.677485,-0.351447 1.028198,-0.50094 0.576927,-0.245919 0.859746,-0.338327 1.442718,-0.385147 0.122882,-0.0099 0.246512,0.0046 0.369768,0.007 0,0 2.641885,-1.869694 2.641885,-1.869694 z"
     id="path158"
     style="fill:#241c1c;fill-opacity:0" />
  <path
     d="m 19.898064,-4.7158083 c 0.174329,0.1577096 0.364212,0.3542358 0.595626,0.4267543 1.337114,0.4190117 2.837548,0.091925 4.165296,-0.1678631 0.923461,-0.2050816 1.790355,-0.5690279 2.603787,-1.0466857 1.649412,-0.9685561 2.885608,-1.4346286 4.043378,-2.6908639 0.320232,-0.4059013 0.174456,-0.2093514 0.440863,-0.587012 0,0 -2.952382,1.2777561 -2.952382,1.2777561 v 0 c -0.258233,0.3450383 -0.115639,0.1659471 -0.432096,0.5338117 -0.98204,0.9585119 -1.91484,1.2365436 1.327051,-0.4955915 0.245696,-0.131275 -0.47248,0.2962042 -0.718866,0.4261805 -0.87229,0.4601603 -0.9033,0.4213493 -1.870558,0.7310253 -1.076329,0.237958 -2.098285,0.433148 -3.207613,0.3714437 -0.239081,-0.013299 -0.481516,-0.027741 -0.712659,-0.090271 -0.202214,-0.054704 -0.35129,-0.2176041 -0.496659,-0.3533279 0,0 -2.785168,1.6646433 -2.785168,1.6646435 z"
     id="path160"
     style="fill:#241f1c;fill-opacity:0;opacity:0.93" />
  <path
     d="m 38.785603,40.564631 c 0.151953,1.597933 0.217863,3.202177 0.544138,4.779089 0.09017,0.435783 0.209714,0.864967 0.31457,1.29745 0.318734,1.119144 0.646003,2.259268 1.515627,3.091892 0.758193,0.725935 1.69995,1.009349 2.677643,1.28359 2.036066,0.322299 4.00585,-0.413696 5.897183,-1.083778 0.226253,-0.08563 0.452507,-0.171256 0.67876,-0.256884 0,0 2.46692,-1.937137 2.46692,-1.937137 v 0 c -0.234117,0.09484 -0.468234,0.18969 -0.702351,0.284535 -1.847743,0.695841 -3.775848,1.434885 -5.783938,1.232645 -0.934781,-0.219657 -1.853969,-0.438714 -2.593525,-1.105018 -0.858678,-0.773626 -1.176327,-1.880492 -1.492301,-2.94686 -0.100259,-0.426401 -0.217762,-0.849112 -0.300775,-1.279203 -0.308823,-1.600016 -0.327344,-3.226523 -0.364606,-4.848994 0,0 -2.857345,1.488673 -2.857345,1.488673 z"
     id="path162"
     style="opacity:0.93;fill:#241f1c;fill-opacity:0" />
</svg>
