<svg viewBox="0 0 19 19" fill="none" xmlns="http://www.w3.org/2000/svg">
<path fill-rule="evenodd" clip-rule="evenodd" d="M17.4175 7.64494C17.2053 5.59433 16.4982 2.62449 16.3568 1.91738C15.579 1.70525 12.6799 0.927429 10.5585 0.786008L10.5585 0.644586C12.6799 0.786008 17.9124 0.0789008 18.266 0.0081901C18.266 0.291033 17.4882 5.59433 17.6296 7.71565L17.4175 7.64494Z" fill="#1F1F1F"/>
<path fill-rule="evenodd" clip-rule="evenodd" d="M0.801179 10.5443C0.942601 12.6657 1.72042 15.5648 1.86184 16.4133C2.56895 16.5548 5.60951 17.3326 7.73083 17.474L7.73083 17.6154C5.60951 17.474 0.376915 18.1811 0.023362 18.2518C0.023362 17.969 0.801179 12.6657 0.659758 10.5443L0.801179 10.5443Z" fill="#1F1F1F"/>
</svg>
